<svg xmlns="http://www.w3.org/2000/svg" xmlns:xlink="http://www.w3.org/1999/xlink" width="500" zoomAndPan="magnify" viewBox="0 0 375 374.999991" height="500" preserveAspectRatio="xMidYMid meet" version="1.0"><defs><g/><clipPath id="6cd286eee6"><path d="M 56.488281 151.464844 L 318.238281 151.464844 L 318.238281 223.464844 L 56.488281 223.464844 Z M 56.488281 151.464844 " clip-rule="nonzero"/></clipPath><clipPath id="3228fd15d4"><path d="M 63.558594 158.238281 L 187.332031 158.238281 L 187.332031 216.761719 L 63.558594 216.761719 Z M 63.558594 158.238281 " clip-rule="nonzero"/></clipPath></defs><rect x="-37.5" width="450" fill="#ffffff" y="-37.499999" height="449.999989" fill-opacity="1"/><rect x="-37.5" width="450" fill="#ffffff" y="-37.499999" height="449.999989" fill-opacity="1"/><rect x="-37.5" width="450" fill="#ffffff" y="-37.499999" height="449.999989" fill-opacity="1"/><g clip-path="url(#6cd286eee6)"><path stroke-linecap="butt" transform="matrix(0.750202, 0, 0, 0.749268, 56.489269, 151.465449)" fill="none" stroke-linejoin="miter" d="M -0.00131637 -0.000808127 L 348.904932 -0.000808127 L 348.904932 96.092952 L -0.00131637 96.092952 L -0.00131637 -0.000808127 " stroke="#000000" stroke-width="6" stroke-opacity="1" stroke-miterlimit="4"/></g><g clip-path="url(#3228fd15d4)"><path fill="#000000" d="M 63.558594 158.238281 L 187.515625 158.238281 L 187.515625 216.84375 L 63.558594 216.84375 Z M 63.558594 158.238281 " fill-opacity="1" fill-rule="nonzero"/></g><g fill="#ffffff" fill-opacity="1"><g transform="translate(87.337227, 196.618259)"><g><path d="M 7.613281 0 L 10.082031 0 L 10.082031 -17.300781 L 16.710938 -17.300781 L 16.710938 -19.660156 L 0.953125 -19.660156 L 0.953125 -17.300781 L 7.613281 -17.300781 Z M 7.613281 0 "/></g></g></g><g fill="#ffffff" fill-opacity="1"><g transform="translate(107.161213, 196.618259)"><g><path d="M 0.476562 0 L 3.117188 0 L 4.914062 -4.464844 L 14.492188 -4.464844 L 16.347656 0 L 18.960938 0 L 10.871094 -19.660156 L 8.566406 -19.660156 Z M 5.871094 -6.769531 L 9.71875 -16.207031 L 13.566406 -6.769531 Z M 5.871094 -6.769531 "/></g></g></g><g fill="#ffffff" fill-opacity="1"><g transform="translate(128.726041, 196.618259)"><g><path d="M 2.863281 0 L 14.886719 0 L 14.886719 -2.359375 L 5.335938 -2.359375 L 5.335938 -19.660156 L 2.863281 -19.660156 Z M 2.863281 0 "/></g></g></g><g fill="#ffffff" fill-opacity="1"><g transform="translate(146.612646, 196.618259)"><g><path d="M 2.863281 0 L 15.109375 0 L 15.109375 -2.304688 L 5.335938 -2.304688 L 5.335938 -8.875 L 14.101562 -8.875 L 14.101562 -11.152344 L 5.335938 -11.152344 L 5.335938 -17.359375 L 14.800781 -17.359375 L 14.800781 -19.660156 L 2.863281 -19.660156 Z M 2.863281 0 "/></g></g></g><g fill="#000000" fill-opacity="1"><g transform="translate(203.304418, 196.769512)"><g><path d="M 11.261719 0.421875 C 16.683594 0.421875 20.785156 -2.863281 21.625 -7.863281 L 15.867188 -7.863281 C 15.167969 -6.011719 13.507812 -4.832031 11.375 -4.832031 C 8.621094 -4.832031 6.710938 -6.882812 6.710938 -9.832031 C 6.710938 -12.808594 8.652344 -14.828125 11.429688 -14.828125 C 13.480469 -14.828125 15.195312 -13.679688 15.785156 -11.910156 L 21.515625 -11.910156 C 20.503906 -16.878906 16.457031 -20.082031 11.207031 -20.082031 C 5.140625 -20.082031 0.953125 -15.898438 0.953125 -9.832031 C 0.953125 -3.761719 5.140625 0.421875 11.261719 0.421875 Z M 11.261719 0.421875 "/></g></g></g><g fill="#000000" fill-opacity="1"><g transform="translate(225.828595, 196.769512)"><g><path d="M 2.078125 0 L 7.75 0 L 7.75 -5.589844 L 9.886719 -5.589844 L 12.695312 0 L 19.128906 0 L 15.503906 -6.628906 C 17.582031 -7.78125 18.761719 -9.859375 18.761719 -12.609375 C 18.761719 -16.964844 15.8125 -19.660156 11.039062 -19.660156 L 2.078125 -19.660156 Z M 7.640625 -10.109375 L 7.640625 -15.027344 L 10.28125 -15.027344 C 12.078125 -15.027344 13.058594 -14.15625 13.058594 -12.582031 C 13.058594 -11.011719 12.078125 -10.109375 10.28125 -10.109375 Z M 7.640625 -10.109375 "/></g></g></g><g fill="#000000" fill-opacity="1"><g transform="translate(246.049807, 196.769512)"><g><path d="M 0.140625 0 L 6.152344 0 L 7.21875 -2.78125 L 13.929688 -2.78125 L 15 0 L 21.035156 0 L 13.398438 -19.660156 L 7.78125 -19.660156 Z M 8.398438 -6.9375 L 10.589844 -13.03125 L 12.78125 -6.9375 Z M 8.398438 -6.9375 "/></g></g></g><g fill="#000000" fill-opacity="1"><g transform="translate(267.225904, 196.769512)"><g><path d="M 2.078125 0 L 7.75 0 L 7.75 -5.84375 L 14.324219 -5.84375 L 14.324219 -10.757812 L 7.75 -10.757812 L 7.75 -14.605469 L 15.054688 -14.605469 L 15.054688 -19.660156 L 2.078125 -19.660156 Z M 2.078125 0 "/></g></g></g><g fill="#000000" fill-opacity="1"><g transform="translate(283.346707, 196.769512)"><g><path d="M 6.769531 0 L 12.414062 0 L 12.414062 -14.410156 L 18.398438 -14.410156 L 18.398438 -19.660156 L 0.785156 -19.660156 L 0.785156 -14.410156 L 6.769531 -14.410156 Z M 6.769531 0 "/></g></g></g></svg>